<svg width="1280" height="380" viewBox="0 0 1280 380" xmlns="http://www.w3.org/2000/svg">
<rect width="1280" height="380" rx="22" fill="#080B11"/>
<rect x="1" y="1" width="1278" height="378" rx="21" fill="none" stroke="#1B2330" stroke-width="1.5"/>
<rect x="40" y="40" width="1200" height="300" rx="12" fill="#0F1623" stroke="#222C3C" stroke-width="1.5"/>
<rect x="40" y="40" width="1200" height="34" rx="12" fill="#131C2B"/><rect x="40" y="60" width="1200" height="14" fill="#131C2B"/>
<circle cx="68" cy="57" r="6" fill="#FF5F56"/><circle cx="90" cy="57" r="6" fill="#FFBD2E"/><circle cx="112" cy="57" r="6" fill="#27C93F"/><text x="640" y="62" text-anchor="middle" font-family="ui-monospace,'SF Mono',Menlo,monospace" font-size="12.5" fill="#5A6678">eikiyo — zsh</text>
<g font-family="ui-monospace,'SF Mono',Menlo,monospace">
<text x="72" y="142" font-size="19" fill="#5A6678">eikiyo@edge<tspan fill="#9BA6B6"> ~ %</tspan><tspan fill="#F2F5FA"> whoami</tspan></text>
<text x="72" y="188" font-size="30" font-weight="700" fill="#F38020">Seyed Mosayeb Alam</text>
<text x="72" y="224" font-size="16" fill="#9BA6B6">Building AI-native software on the edge.</text>
<text x="72" y="254" font-size="14" fill="#5B6677">rectoapp.com&#160;&#160;&#183;&#160;&#160;@eikiyo</text>
<text x="72" y="300" font-size="19" fill="#5A6678">eikiyo@edge<tspan fill="#9BA6B6"> ~ %</tspan> <tspan fill="#F2F5FA">_</tspan></text>
<text x="470" y="174" font-size="14" fill="#8B95A5">1,451 contributions in the last year</text>
</g>
<g><rect x="470" y="196" width="13" height="13" rx="2" fill="#15202E"/><rect x="470" y="210" width="13" height="13" rx="2" fill="#15202E"/><rect x="470" y="224" width="13" height="13" rx="2" fill="#15202E"/><rect x="470" y="238" width="13" height="13" rx="2" fill="#15202E"/><rect x="470" y="252" width="13" height="13" rx="2" fill="#15202E"/><rect x="470" y="266" width="13" height="13" rx="2" fill="#D17C20"/><rect x="470" y="280" width="13" height="13" rx="2" fill="#FF9E2D"/><rect x="484" y="196" width="13" height="13" rx="2" fill="#15202E"/><rect x="484" y="210" width="13" height="13" rx="2" fill="#15202E"/><rect x="484" y="224" width="13" height="13" rx="2" fill="#5A3617"/><rect x="484" y="238" width="13" height="13" rx="2" fill="#15202E"/><rect x="484" y="252" width="13" height="13" rx="2" fill="#15202E"/><rect x="484" y="266" width="13" height="13" rx="2" fill="#15202E"/><rect x="484" y="280" width="13" height="13" rx="2" fill="#15202E"/><rect x="498" y="196" width="13" height="13" rx="2" fill="#15202E"/><rect x="498" y="210" width="13" height="13" rx="2" fill="#15202E"/><rect x="498" y="224" width="13" height="13" rx="2" fill="#15202E"/><rect x="498" y="238" width="13" height="13" rx="2" fill="#15202E"/><rect x="498" y="252" width="13" height="13" rx="2" fill="#15202E"/><rect x="498" y="266" width="13" height="13" rx="2" fill="#D17C20"/><rect x="498" y="280" width="13" height="13" rx="2" fill="#D17C20"/><rect x="512" y="196" width="13" height="13" rx="2" fill="#D17C20"/><rect x="512" y="210" width="13" height="13" rx="2" fill="#D17C20"/><rect x="512" y="224" width="13" height="13" rx="2" fill="#9A571B"/><rect x="512" y="238" width="13" height="13" rx="2" fill="#9A571B"/><rect x="512" y="252" width="13" height="13" rx="2" fill="#5A3617"/><rect x="512" y="266" width="13" height="13" rx="2" fill="#FF9E2D"/><rect x="512" y="280" width="13" height="13" rx="2" fill="#D17C20"/><rect x="526" y="196" width="13" height="13" rx="2" fill="#5A3617"/><rect x="526" y="210" width="13" height="13" rx="2" fill="#FF9E2D"/><rect x="526" y="224" width="13" height="13" rx="2" fill="#FF9E2D"/><rect x="526" y="238" width="13" height="13" rx="2" fill="#5A3617"/><rect x="526" y="252" width="13" height="13" rx="2" fill="#15202E"/><rect x="526" y="266" width="13" height="13" rx="2" fill="#15202E"/><rect x="526" y="280" width="13" height="13" rx="2" fill="#15202E"/><rect x="540" y="196" width="13" height="13" rx="2" fill="#15202E"/><rect x="540" y="210" width="13" height="13" rx="2" fill="#15202E"/><rect x="540" y="224" width="13" height="13" rx="2" fill="#15202E"/><rect x="540" y="238" width="13" height="13" rx="2" fill="#15202E"/><rect x="540" y="252" width="13" height="13" rx="2" fill="#5A3617"/><rect x="540" y="266" width="13" height="13" rx="2" fill="#15202E"/><rect x="540" y="280" width="13" height="13" rx="2" fill="#15202E"/><rect x="554" y="196" width="13" height="13" rx="2" fill="#FF9E2D"/><rect x="554" y="210" width="13" height="13" rx="2" fill="#9A571B"/><rect x="554" y="224" width="13" height="13" rx="2" fill="#15202E"/><rect x="554" y="238" width="13" height="13" rx="2" fill="#15202E"/><rect x="554" y="252" width="13" height="13" rx="2" fill="#15202E"/><rect x="554" y="266" width="13" height="13" rx="2" fill="#15202E"/><rect x="554" y="280" width="13" height="13" rx="2" fill="#15202E"/><rect x="568" y="196" width="13" height="13" rx="2" fill="#15202E"/><rect x="568" y="210" width="13" height="13" rx="2" fill="#15202E"/><rect x="568" y="224" width="13" height="13" rx="2" fill="#15202E"/><rect x="568" y="238" width="13" height="13" rx="2" fill="#15202E"/><rect x="568" y="252" width="13" height="13" rx="2" fill="#15202E"/><rect x="568" y="266" width="13" height="13" rx="2" fill="#15202E"/><rect x="568" y="280" width="13" height="13" rx="2" fill="#15202E"/><rect x="582" y="196" width="13" height="13" rx="2" fill="#5A3617"/><rect x="582" y="210" width="13" height="13" rx="2" fill="#15202E"/><rect x="582" y="224" width="13" height="13" rx="2" fill="#15202E"/><rect x="582" y="238" width="13" height="13" rx="2" fill="#15202E"/><rect x="582" y="252" width="13" height="13" rx="2" fill="#15202E"/><rect x="582" y="266" width="13" height="13" rx="2" fill="#15202E"/><rect x="582" y="280" width="13" height="13" rx="2" fill="#15202E"/><rect x="596" y="196" width="13" height="13" rx="2" fill="#5A3617"/><rect x="596" y="210" width="13" height="13" rx="2" fill="#15202E"/><rect x="596" y="224" width="13" height="13" rx="2" fill="#15202E"/><rect x="596" y="238" width="13" height="13" rx="2" fill="#15202E"/><rect x="596" y="252" width="13" height="13" rx="2" fill="#15202E"/><rect x="596" y="266" width="13" height="13" rx="2" fill="#15202E"/><rect x="596" y="280" width="13" height="13" rx="2" fill="#15202E"/><rect x="610" y="196" width="13" height="13" rx="2" fill="#15202E"/><rect x="610" y="210" width="13" height="13" rx="2" fill="#15202E"/><rect x="610" y="224" width="13" height="13" rx="2" fill="#15202E"/><rect x="610" y="238" width="13" height="13" rx="2" fill="#15202E"/><rect x="610" y="252" width="13" height="13" rx="2" fill="#15202E"/><rect x="610" y="266" width="13" height="13" rx="2" fill="#15202E"/><rect x="610" y="280" width="13" height="13" rx="2" fill="#15202E"/><rect x="624" y="196" width="13" height="13" rx="2" fill="#15202E"/><rect x="624" y="210" width="13" height="13" rx="2" fill="#15202E"/><rect x="624" y="224" width="13" height="13" rx="2" fill="#5A3617"/><rect x="624" y="238" width="13" height="13" rx="2" fill="#15202E"/><rect x="624" y="252" width="13" height="13" rx="2" fill="#15202E"/><rect x="624" y="266" width="13" height="13" rx="2" fill="#15202E"/><rect x="624" y="280" width="13" height="13" rx="2" fill="#15202E"/><rect x="638" y="196" width="13" height="13" rx="2" fill="#15202E"/><rect x="638" y="210" width="13" height="13" rx="2" fill="#15202E"/><rect x="638" y="224" width="13" height="13" rx="2" fill="#15202E"/><rect x="638" y="238" width="13" height="13" rx="2" fill="#15202E"/><rect x="638" y="252" width="13" height="13" rx="2" fill="#15202E"/><rect x="638" y="266" width="13" height="13" rx="2" fill="#15202E"/><rect x="638" y="280" width="13" height="13" rx="2" fill="#15202E"/><rect x="652" y="196" width="13" height="13" rx="2" fill="#15202E"/><rect x="652" y="210" width="13" height="13" rx="2" fill="#15202E"/><rect x="652" y="224" width="13" height="13" rx="2" fill="#15202E"/><rect x="652" y="238" width="13" height="13" rx="2" fill="#15202E"/><rect x="652" y="252" width="13" height="13" rx="2" fill="#15202E"/><rect x="652" y="266" width="13" height="13" rx="2" fill="#15202E"/><rect x="652" y="280" width="13" height="13" rx="2" fill="#15202E"/><rect x="666" y="196" width="13" height="13" rx="2" fill="#15202E"/><rect x="666" y="210" width="13" height="13" rx="2" fill="#15202E"/><rect x="666" y="224" width="13" height="13" rx="2" fill="#15202E"/><rect x="666" y="238" width="13" height="13" rx="2" fill="#15202E"/><rect x="666" y="252" width="13" height="13" rx="2" fill="#15202E"/><rect x="666" y="266" width="13" height="13" rx="2" fill="#15202E"/><rect x="666" y="280" width="13" height="13" rx="2" fill="#15202E"/><rect x="680" y="196" width="13" height="13" rx="2" fill="#15202E"/><rect x="680" y="210" width="13" height="13" rx="2" fill="#15202E"/><rect x="680" y="224" width="13" height="13" rx="2" fill="#15202E"/><rect x="680" y="238" width="13" height="13" rx="2" fill="#15202E"/><rect x="680" y="252" width="13" height="13" rx="2" fill="#15202E"/><rect x="680" y="266" width="13" height="13" rx="2" fill="#15202E"/><rect x="680" y="280" width="13" height="13" rx="2" fill="#15202E"/><rect x="694" y="196" width="13" height="13" rx="2" fill="#15202E"/><rect x="694" y="210" width="13" height="13" rx="2" fill="#15202E"/><rect x="694" y="224" width="13" height="13" rx="2" fill="#15202E"/><rect x="694" y="238" width="13" height="13" rx="2" fill="#15202E"/><rect x="694" y="252" width="13" height="13" rx="2" fill="#15202E"/><rect x="694" y="266" width="13" height="13" rx="2" fill="#15202E"/><rect x="694" y="280" width="13" height="13" rx="2" fill="#15202E"/><rect x="708" y="196" width="13" height="13" rx="2" fill="#15202E"/><rect x="708" y="210" width="13" height="13" rx="2" fill="#15202E"/><rect x="708" y="224" width="13" height="13" rx="2" fill="#15202E"/><rect x="708" y="238" width="13" height="13" rx="2" fill="#15202E"/><rect x="708" y="252" width="13" height="13" rx="2" fill="#15202E"/><rect x="708" y="266" width="13" height="13" rx="2" fill="#15202E"/><rect x="708" y="280" width="13" height="13" rx="2" fill="#15202E"/><rect x="722" y="196" width="13" height="13" rx="2" fill="#15202E"/><rect x="722" y="210" width="13" height="13" rx="2" fill="#15202E"/><rect x="722" y="224" width="13" height="13" rx="2" fill="#15202E"/><rect x="722" y="238" width="13" height="13" rx="2" fill="#15202E"/><rect x="722" y="252" width="13" height="13" rx="2" fill="#15202E"/><rect x="722" y="266" width="13" height="13" rx="2" fill="#15202E"/><rect x="722" y="280" width="13" height="13" rx="2" fill="#15202E"/><rect x="736" y="196" width="13" height="13" rx="2" fill="#15202E"/><rect x="736" y="210" width="13" height="13" rx="2" fill="#15202E"/><rect x="736" y="224" width="13" height="13" rx="2" fill="#15202E"/><rect x="736" y="238" width="13" height="13" rx="2" fill="#15202E"/><rect x="736" y="252" width="13" height="13" rx="2" fill="#15202E"/><rect x="736" y="266" width="13" height="13" rx="2" fill="#15202E"/><rect x="736" y="280" width="13" height="13" rx="2" fill="#15202E"/><rect x="750" y="196" width="13" height="13" rx="2" fill="#15202E"/><rect x="750" y="210" width="13" height="13" rx="2" fill="#15202E"/><rect x="750" y="224" width="13" height="13" rx="2" fill="#15202E"/><rect x="750" y="238" width="13" height="13" rx="2" fill="#15202E"/><rect x="750" y="252" width="13" height="13" rx="2" fill="#15202E"/><rect x="750" y="266" width="13" height="13" rx="2" fill="#15202E"/><rect x="750" y="280" width="13" height="13" rx="2" fill="#15202E"/><rect x="764" y="196" width="13" height="13" rx="2" fill="#15202E"/><rect x="764" y="210" width="13" height="13" rx="2" fill="#15202E"/><rect x="764" y="224" width="13" height="13" rx="2" fill="#15202E"/><rect x="764" y="238" width="13" height="13" rx="2" fill="#15202E"/><rect x="764" y="252" width="13" height="13" rx="2" fill="#15202E"/><rect x="764" y="266" width="13" height="13" rx="2" fill="#15202E"/><rect x="764" y="280" width="13" height="13" rx="2" fill="#15202E"/><rect x="778" y="196" width="13" height="13" rx="2" fill="#15202E"/><rect x="778" y="210" width="13" height="13" rx="2" fill="#15202E"/><rect x="778" y="224" width="13" height="13" rx="2" fill="#15202E"/><rect x="778" y="238" width="13" height="13" rx="2" fill="#15202E"/><rect x="778" y="252" width="13" height="13" rx="2" fill="#15202E"/><rect x="778" y="266" width="13" height="13" rx="2" fill="#15202E"/><rect x="778" y="280" width="13" height="13" rx="2" fill="#15202E"/><rect x="792" y="196" width="13" height="13" rx="2" fill="#15202E"/><rect x="792" y="210" width="13" height="13" rx="2" fill="#15202E"/><rect x="792" y="224" width="13" height="13" rx="2" fill="#15202E"/><rect x="792" y="238" width="13" height="13" rx="2" fill="#15202E"/><rect x="792" y="252" width="13" height="13" rx="2" fill="#15202E"/><rect x="792" y="266" width="13" height="13" rx="2" fill="#15202E"/><rect x="792" y="280" width="13" height="13" rx="2" fill="#15202E"/><rect x="806" y="196" width="13" height="13" rx="2" fill="#15202E"/><rect x="806" y="210" width="13" height="13" rx="2" fill="#15202E"/><rect x="806" y="224" width="13" height="13" rx="2" fill="#15202E"/><rect x="806" y="238" width="13" height="13" rx="2" fill="#15202E"/><rect x="806" y="252" width="13" height="13" rx="2" fill="#15202E"/><rect x="806" y="266" width="13" height="13" rx="2" fill="#15202E"/><rect x="806" y="280" width="13" height="13" rx="2" fill="#15202E"/><rect x="820" y="196" width="13" height="13" rx="2" fill="#15202E"/><rect x="820" y="210" width="13" height="13" rx="2" fill="#15202E"/><rect x="820" y="224" width="13" height="13" rx="2" fill="#15202E"/><rect x="820" y="238" width="13" height="13" rx="2" fill="#15202E"/><rect x="820" y="252" width="13" height="13" rx="2" fill="#15202E"/><rect x="820" y="266" width="13" height="13" rx="2" fill="#15202E"/><rect x="820" y="280" width="13" height="13" rx="2" fill="#15202E"/><rect x="834" y="196" width="13" height="13" rx="2" fill="#15202E"/><rect x="834" y="210" width="13" height="13" rx="2" fill="#15202E"/><rect x="834" y="224" width="13" height="13" rx="2" fill="#15202E"/><rect x="834" y="238" width="13" height="13" rx="2" fill="#15202E"/><rect x="834" y="252" width="13" height="13" rx="2" fill="#15202E"/><rect x="834" y="266" width="13" height="13" rx="2" fill="#15202E"/><rect x="834" y="280" width="13" height="13" rx="2" fill="#15202E"/><rect x="848" y="196" width="13" height="13" rx="2" fill="#15202E"/><rect x="848" y="210" width="13" height="13" rx="2" fill="#15202E"/><rect x="848" y="224" width="13" height="13" rx="2" fill="#15202E"/><rect x="848" y="238" width="13" height="13" rx="2" fill="#15202E"/><rect x="848" y="252" width="13" height="13" rx="2" fill="#15202E"/><rect x="848" y="266" width="13" height="13" rx="2" fill="#15202E"/><rect x="848" y="280" width="13" height="13" rx="2" fill="#15202E"/><rect x="862" y="196" width="13" height="13" rx="2" fill="#15202E"/><rect x="862" y="210" width="13" height="13" rx="2" fill="#15202E"/><rect x="862" y="224" width="13" height="13" rx="2" fill="#15202E"/><rect x="862" y="238" width="13" height="13" rx="2" fill="#15202E"/><rect x="862" y="252" width="13" height="13" rx="2" fill="#15202E"/><rect x="862" y="266" width="13" height="13" rx="2" fill="#15202E"/><rect x="862" y="280" width="13" height="13" rx="2" fill="#15202E"/><rect x="876" y="196" width="13" height="13" rx="2" fill="#15202E"/><rect x="876" y="210" width="13" height="13" rx="2" fill="#5A3617"/><rect x="876" y="224" width="13" height="13" rx="2" fill="#15202E"/><rect x="876" y="238" width="13" height="13" rx="2" fill="#15202E"/><rect x="876" y="252" width="13" height="13" rx="2" fill="#15202E"/><rect x="876" y="266" width="13" height="13" rx="2" fill="#15202E"/><rect x="876" y="280" width="13" height="13" rx="2" fill="#15202E"/><rect x="890" y="196" width="13" height="13" rx="2" fill="#15202E"/><rect x="890" y="210" width="13" height="13" rx="2" fill="#15202E"/><rect x="890" y="224" width="13" height="13" rx="2" fill="#15202E"/><rect x="890" y="238" width="13" height="13" rx="2" fill="#15202E"/><rect x="890" y="252" width="13" height="13" rx="2" fill="#15202E"/><rect x="890" y="266" width="13" height="13" rx="2" fill="#15202E"/><rect x="890" y="280" width="13" height="13" rx="2" fill="#15202E"/><rect x="904" y="196" width="13" height="13" rx="2" fill="#15202E"/><rect x="904" y="210" width="13" height="13" rx="2" fill="#15202E"/><rect x="904" y="224" width="13" height="13" rx="2" fill="#15202E"/><rect x="904" y="238" width="13" height="13" rx="2" fill="#15202E"/><rect x="904" y="252" width="13" height="13" rx="2" fill="#15202E"/><rect x="904" y="266" width="13" height="13" rx="2" fill="#15202E"/><rect x="904" y="280" width="13" height="13" rx="2" fill="#15202E"/><rect x="918" y="196" width="13" height="13" rx="2" fill="#15202E"/><rect x="918" y="210" width="13" height="13" rx="2" fill="#15202E"/><rect x="918" y="224" width="13" height="13" rx="2" fill="#15202E"/><rect x="918" y="238" width="13" height="13" rx="2" fill="#15202E"/><rect x="918" y="252" width="13" height="13" rx="2" fill="#15202E"/><rect x="918" y="266" width="13" height="13" rx="2" fill="#15202E"/><rect x="918" y="280" width="13" height="13" rx="2" fill="#15202E"/><rect x="932" y="196" width="13" height="13" rx="2" fill="#5A3617"/><rect x="932" y="210" width="13" height="13" rx="2" fill="#15202E"/><rect x="932" y="224" width="13" height="13" rx="2" fill="#15202E"/><rect x="932" y="238" width="13" height="13" rx="2" fill="#15202E"/><rect x="932" y="252" width="13" height="13" rx="2" fill="#15202E"/><rect x="932" y="266" width="13" height="13" rx="2" fill="#15202E"/><rect x="932" y="280" width="13" height="13" rx="2" fill="#5A3617"/><rect x="946" y="196" width="13" height="13" rx="2" fill="#15202E"/><rect x="946" y="210" width="13" height="13" rx="2" fill="#15202E"/><rect x="946" y="224" width="13" height="13" rx="2" fill="#15202E"/><rect x="946" y="238" width="13" height="13" rx="2" fill="#15202E"/><rect x="946" y="252" width="13" height="13" rx="2" fill="#15202E"/><rect x="946" y="266" width="13" height="13" rx="2" fill="#15202E"/><rect x="946" y="280" width="13" height="13" rx="2" fill="#15202E"/><rect x="960" y="196" width="13" height="13" rx="2" fill="#15202E"/><rect x="960" y="210" width="13" height="13" rx="2" fill="#15202E"/><rect x="960" y="224" width="13" height="13" rx="2" fill="#15202E"/><rect x="960" y="238" width="13" height="13" rx="2" fill="#15202E"/><rect x="960" y="252" width="13" height="13" rx="2" fill="#5A3617"/><rect x="960" y="266" width="13" height="13" rx="2" fill="#5A3617"/><rect x="960" y="280" width="13" height="13" rx="2" fill="#15202E"/><rect x="974" y="196" width="13" height="13" rx="2" fill="#15202E"/><rect x="974" y="210" width="13" height="13" rx="2" fill="#15202E"/><rect x="974" y="224" width="13" height="13" rx="2" fill="#15202E"/><rect x="974" y="238" width="13" height="13" rx="2" fill="#15202E"/><rect x="974" y="252" width="13" height="13" rx="2" fill="#5A3617"/><rect x="974" y="266" width="13" height="13" rx="2" fill="#15202E"/><rect x="974" y="280" width="13" height="13" rx="2" fill="#15202E"/><rect x="988" y="196" width="13" height="13" rx="2" fill="#15202E"/><rect x="988" y="210" width="13" height="13" rx="2" fill="#15202E"/><rect x="988" y="224" width="13" height="13" rx="2" fill="#15202E"/><rect x="988" y="238" width="13" height="13" rx="2" fill="#5A3617"/><rect x="988" y="252" width="13" height="13" rx="2" fill="#15202E"/><rect x="988" y="266" width="13" height="13" rx="2" fill="#15202E"/><rect x="988" y="280" width="13" height="13" rx="2" fill="#15202E"/><rect x="1002" y="196" width="13" height="13" rx="2" fill="#15202E"/><rect x="1002" y="210" width="13" height="13" rx="2" fill="#15202E"/><rect x="1002" y="224" width="13" height="13" rx="2" fill="#15202E"/><rect x="1002" y="238" width="13" height="13" rx="2" fill="#15202E"/><rect x="1002" y="252" width="13" height="13" rx="2" fill="#15202E"/><rect x="1002" y="266" width="13" height="13" rx="2" fill="#15202E"/><rect x="1002" y="280" width="13" height="13" rx="2" fill="#15202E"/><rect x="1016" y="196" width="13" height="13" rx="2" fill="#15202E"/><rect x="1016" y="210" width="13" height="13" rx="2" fill="#15202E"/><rect x="1016" y="224" width="13" height="13" rx="2" fill="#15202E"/><rect x="1016" y="238" width="13" height="13" rx="2" fill="#15202E"/><rect x="1016" y="252" width="13" height="13" rx="2" fill="#15202E"/><rect x="1016" y="266" width="13" height="13" rx="2" fill="#15202E"/><rect x="1016" y="280" width="13" height="13" rx="2" fill="#15202E"/><rect x="1030" y="196" width="13" height="13" rx="2" fill="#15202E"/><rect x="1030" y="210" width="13" height="13" rx="2" fill="#15202E"/><rect x="1030" y="224" width="13" height="13" rx="2" fill="#15202E"/><rect x="1030" y="238" width="13" height="13" rx="2" fill="#15202E"/><rect x="1030" y="252" width="13" height="13" rx="2" fill="#15202E"/><rect x="1030" y="266" width="13" height="13" rx="2" fill="#15202E"/><rect x="1030" y="280" width="13" height="13" rx="2" fill="#15202E"/><rect x="1044" y="196" width="13" height="13" rx="2" fill="#15202E"/><rect x="1044" y="210" width="13" height="13" rx="2" fill="#15202E"/><rect x="1044" y="224" width="13" height="13" rx="2" fill="#15202E"/><rect x="1044" y="238" width="13" height="13" rx="2" fill="#15202E"/><rect x="1044" y="252" width="13" height="13" rx="2" fill="#15202E"/><rect x="1044" y="266" width="13" height="13" rx="2" fill="#15202E"/><rect x="1044" y="280" width="13" height="13" rx="2" fill="#15202E"/><rect x="1058" y="196" width="13" height="13" rx="2" fill="#5A3617"/><rect x="1058" y="210" width="13" height="13" rx="2" fill="#15202E"/><rect x="1058" y="224" width="13" height="13" rx="2" fill="#15202E"/><rect x="1058" y="238" width="13" height="13" rx="2" fill="#15202E"/><rect x="1058" y="252" width="13" height="13" rx="2" fill="#5A3617"/><rect x="1058" y="266" width="13" height="13" rx="2" fill="#15202E"/><rect x="1058" y="280" width="13" height="13" rx="2" fill="#15202E"/><rect x="1072" y="196" width="13" height="13" rx="2" fill="#15202E"/><rect x="1072" y="210" width="13" height="13" rx="2" fill="#15202E"/><rect x="1072" y="224" width="13" height="13" rx="2" fill="#15202E"/><rect x="1072" y="238" width="13" height="13" rx="2" fill="#15202E"/><rect x="1072" y="252" width="13" height="13" rx="2" fill="#15202E"/><rect x="1072" y="266" width="13" height="13" rx="2" fill="#15202E"/><rect x="1072" y="280" width="13" height="13" rx="2" fill="#15202E"/><rect x="1086" y="196" width="13" height="13" rx="2" fill="#15202E"/><rect x="1086" y="210" width="13" height="13" rx="2" fill="#15202E"/><rect x="1086" y="224" width="13" height="13" rx="2" fill="#15202E"/><rect x="1086" y="238" width="13" height="13" rx="2" fill="#15202E"/><rect x="1086" y="252" width="13" height="13" rx="2" fill="#15202E"/><rect x="1086" y="266" width="13" height="13" rx="2" fill="#15202E"/><rect x="1086" y="280" width="13" height="13" rx="2" fill="#15202E"/><rect x="1100" y="196" width="13" height="13" rx="2" fill="#15202E"/><rect x="1100" y="210" width="13" height="13" rx="2" fill="#15202E"/><rect x="1100" y="224" width="13" height="13" rx="2" fill="#15202E"/><rect x="1100" y="238" width="13" height="13" rx="2" fill="#15202E"/><rect x="1100" y="252" width="13" height="13" rx="2" fill="#15202E"/><rect x="1100" y="266" width="13" height="13" rx="2" fill="#15202E"/><rect x="1100" y="280" width="13" height="13" rx="2" fill="#15202E"/><rect x="1114" y="196" width="13" height="13" rx="2" fill="#5A3617"/><rect x="1114" y="210" width="13" height="13" rx="2" fill="#15202E"/><rect x="1114" y="224" width="13" height="13" rx="2" fill="#15202E"/><rect x="1114" y="238" width="13" height="13" rx="2" fill="#15202E"/><rect x="1114" y="252" width="13" height="13" rx="2" fill="#15202E"/><rect x="1114" y="266" width="13" height="13" rx="2" fill="#15202E"/><rect x="1114" y="280" width="13" height="13" rx="2" fill="#15202E"/><rect x="1128" y="196" width="13" height="13" rx="2" fill="#15202E"/><rect x="1128" y="210" width="13" height="13" rx="2" fill="#9A571B"/><rect x="1128" y="224" width="13" height="13" rx="2" fill="#15202E"/><rect x="1128" y="238" width="13" height="13" rx="2" fill="#15202E"/><rect x="1128" y="252" width="13" height="13" rx="2" fill="#15202E"/><rect x="1128" y="266" width="13" height="13" rx="2" fill="#15202E"/><rect x="1128" y="280" width="13" height="13" rx="2" fill="#15202E"/><rect x="1142" y="196" width="13" height="13" rx="2" fill="#15202E"/><rect x="1142" y="210" width="13" height="13" rx="2" fill="#15202E"/><rect x="1142" y="224" width="13" height="13" rx="2" fill="#15202E"/><rect x="1142" y="238" width="13" height="13" rx="2" fill="#15202E"/><rect x="1142" y="252" width="13" height="13" rx="2" fill="#15202E"/><rect x="1142" y="266" width="13" height="13" rx="2" fill="#15202E"/><rect x="1142" y="280" width="13" height="13" rx="2" fill="#15202E"/><rect x="1156" y="196" width="13" height="13" rx="2" fill="#FF9E2D"/><rect x="1156" y="210" width="13" height="13" rx="2" fill="#5A3617"/><rect x="1156" y="224" width="13" height="13" rx="2" fill="#9A571B"/><rect x="1156" y="238" width="13" height="13" rx="2" fill="#D17C20"/><rect x="1156" y="252" width="13" height="13" rx="2" fill="#D17C20"/><rect x="1156" y="266" width="13" height="13" rx="2" fill="#D17C20"/><rect x="1156" y="280" width="13" height="13" rx="2" fill="#D17C20"/><rect x="1170" y="196" width="13" height="13" rx="2" fill="#FF9E2D"/><rect x="1170" y="210" width="13" height="13" rx="2" fill="#D17C20"/><rect x="1170" y="224" width="13" height="13" rx="2" fill="#FF9E2D"/><rect x="1170" y="238" width="13" height="13" rx="2" fill="#FF9E2D"/><rect x="1170" y="252" width="13" height="13" rx="2" fill="#15202E"/><rect x="1170" y="266" width="13" height="13" rx="2" fill="#FF9E2D"/><rect x="1170" y="280" width="13" height="13" rx="2" fill="#FF9E2D"/><rect x="1184" y="196" width="13" height="13" rx="2" fill="#FF9E2D"/><rect x="1184" y="210" width="13" height="13" rx="2" fill="#FF9E2D"/><rect x="1184" y="224" width="13" height="13" rx="2" fill="#FF9E2D"/><rect x="1184" y="238" width="13" height="13" rx="2" fill="#5A3617"/><rect x="1184" y="252" width="13" height="13" rx="2" fill="#FF9E2D"/><rect x="1184" y="266" width="13" height="13" rx="2" fill="#FF9E2D"/><rect x="1184" y="280" width="13" height="13" rx="2" fill="#FF9E2D"/><rect x="1198" y="196" width="13" height="13" rx="2" fill="#FF9E2D"/><rect x="1198" y="210" width="13" height="13" rx="2" fill="#FF9E2D"/><rect x="1198" y="224" width="13" height="13" rx="2" fill="#D17C20"/><rect x="1198" y="238" width="13" height="13" rx="2" fill="#D17C20"/></g>
</svg>